<svg xmlns="http://www.w3.org/2000/svg" viewBox="0 0 400 400" role="img" aria-labelledby="title desc">
  <title id="title">Roue cadeau officielle Bravocard sur fond gris</title>
  <desc id="desc">Présentation de la roue Bravocard sur un fond gris clair uni.</desc>
  <defs>
    <filter id="shadow" x="-40%" y="-40%" width="180%" height="180%"><feDropShadow dx="0" dy="13" stdDeviation="14" flood-color="#0F0A1C" flood-opacity=".4"/></filter>
    <linearGradient id="gradLavande" x1="200" y1="15" x2="200" y2="385" gradientUnits="userSpaceOnUse">
      <stop offset="0" stop-color="#F0E7FF"/><stop offset=".5" stop-color="#CDBCF6"/><stop offset="1" stop-color="#AE95E8"/>
    </linearGradient>
    <linearGradient id="gradViolet" x1="200" y1="6" x2="200" y2="394" gradientUnits="userSpaceOnUse">
      <stop offset="0" stop-color="#7C55EA"/><stop offset=".55" stop-color="#542FBB"/><stop offset="1" stop-color="#341C7D"/>
    </linearGradient>
    <linearGradient id="gradOr" x1="200" y1="0" x2="200" y2="400" gradientUnits="userSpaceOnUse">
      <stop offset="0" stop-color="#FBEAC0"/><stop offset=".5" stop-color="#E4C77A"/><stop offset="1" stop-color="#C9A24E"/>
    </linearGradient>
  </defs>

  <rect x="0" y="0" width="400" height="400" fill="#E8E7EA"/>

  <g filter="url(#shadow)">
    <path d="M200 200L200 28A172 172 0 0 1 321.62 78.38Z" fill="#663ED7" stroke="#fff" stroke-opacity=".35" stroke-width="1.5"/>
    <path d="M200 200L321.62 78.38A172 172 0 0 1 372 200Z" fill="#542FBB" stroke="#fff" stroke-opacity=".35" stroke-width="1.5"/>
    <path d="M200 200L372 200A172 172 0 0 1 321.62 321.62Z" fill="#CDBCF6" stroke="#fff" stroke-opacity=".35" stroke-width="1.5"/>
    <path d="M200 200L321.62 321.62A172 172 0 0 1 200 372Z" fill="#6039CE" stroke="#fff" stroke-opacity=".35" stroke-width="1.5"/>
    <path d="M200 200L200 372A172 172 0 0 1 78.38 321.62Z" fill="#663ED7" stroke="#fff" stroke-opacity=".35" stroke-width="1.5"/>
    <path d="M200 200L78.38 321.62A172 172 0 0 1 28 200Z" fill="#542FBB" stroke="#fff" stroke-opacity=".35" stroke-width="1.5"/>
    <path d="M200 200L28 200A172 172 0 0 1 78.38 78.38Z" fill="#CDBCF6" stroke="#fff" stroke-opacity=".35" stroke-width="1.5"/>
    <path d="M200 200L78.38 78.38A172 172 0 0 1 200 28Z" fill="#6039CE" stroke="#fff" stroke-opacity=".35" stroke-width="1.5"/>

    <circle cx="200" cy="200" r="174" fill="none" stroke="#171020" stroke-opacity=".38" stroke-width="2"/>
    <circle cx="200" cy="200" r="181" fill="none" stroke="url(#gradLavande)" stroke-width="9"/>
    <circle cx="200" cy="200" r="189" fill="none" stroke="url(#gradViolet)" stroke-width="8"/>
    <circle cx="200" cy="200" r="189" fill="none" stroke="#fff" stroke-opacity=".25" stroke-width="1" transform="translate(0 -1.5)"/>
    <circle cx="200" cy="200" r="193.5" fill="none" stroke="url(#gradOr)" stroke-width="2"/>
    <g fill="url(#gradOr)" stroke="#fff" stroke-opacity=".5" stroke-width=".5">
      <circle cx="337.6" cy="62.4" r="3.4"/><circle cx="393.5" cy="200" r="3.4"/>
      <circle cx="337.6" cy="337.6" r="3.4"/><circle cx="200" cy="393.5" r="3.4"/>
      <circle cx="62.4" cy="337.6" r="3.4"/><circle cx="6.5" cy="200" r="3.4"/>
      <circle cx="62.4" cy="62.4" r="3.4"/>
    </g>

    <g font-family="'Arial Black', Arial, sans-serif" font-weight="900" font-size="21" letter-spacing=".5" text-anchor="middle">
      <text x="247" y="77" fill="#fff" transform="rotate(22.5 247 77)">GAGNÉ</text>
      <text x="323" y="151" fill="#fff" transform="rotate(67.5 323 151)">GAGNÉ</text>
      <text x="323" y="258" fill="#171020" transform="rotate(-67.5 323 258)">GAGNÉ</text>
      <text x="247" y="333" fill="#fff" transform="rotate(-22.5 247 333)">GAGNÉ</text>
      <text x="153" y="333" fill="#fff" transform="rotate(22.5 153 333)">GAGNÉ</text>
      <text x="77" y="258" fill="#fff" transform="rotate(67.5 77 258)">GAGNÉ</text>
      <text x="77" y="151" fill="#171020" transform="rotate(-67.5 77 151)">GAGNÉ</text>
      <text x="153" y="77" fill="#fff" transform="rotate(-22.5 153 77)">GAGNÉ</text>
    </g>

    <circle cx="200" cy="200" r="50" fill="#fff"/>
    <circle cx="200" cy="200" r="50" fill="none" stroke="url(#gradOr)" stroke-width="2"/>
    <circle cx="200" cy="200" r="37" fill="#171020"/>
    <text x="200" y="217" fill="#fff" font-family="Arial, sans-serif" font-size="42" text-anchor="middle">✦</text>

    <path d="M183 4h34l-17 44z" fill="#171020" stroke="url(#gradOr)" stroke-width="3" stroke-linejoin="round"/>
  </g>
</svg>
